# xmcd
#
# Track frame offsets: 
#        150
#        16888
#        33991
#        52224
#        71820
#        84333
#        113483
#        131147
#        150833
#        166017
#        184238
#        201654
#        228632
#
# Disc length: 3197 seconds
#
# Revision: 3
# Processed by: cddbd v1.5.2PL0 Copyright (c) Steve Scherf et al.
# Submitted via: ExactAudioCopyFreeDBPlugin 1.0
#
DISCID=ab0c7b0d
DTITLE=Eric Sardinas - Black Pearls
DYEAR=2003
DGENRE=Blues
TTITLE0=Flames Of Love
TTITLE1=Same Ol' Way
TTITLE2=Bittersweet
TTITLE3=Ain't No Crime
TTITLE4=Big Red Line
TTITLE5=Liar's Dice Blues
TTITLE6=Black Pearls
TTITLE7=Sorow's Kitchen
TTITLE8=Four Roses
TTITLE9=Old Smyrna Road
TTITLE10=Tenfold Trouble
TTITLE11=Wicked Ways
TTITLE12=Unbekannter Titel
EXTD=
EXTT0=
EXTT1=
EXTT2=
EXTT3=
EXTT4=
EXTT5=
EXTT6=
EXTT7=
EXTT8=
EXTT9=
EXTT10=
EXTT11=
EXTT12=
PLAYORDER=
